<svg width="608" height="608" viewBox="0 0 608 608" fill="none" xmlns="http://www.w3.org/2000/svg">
<path d="M581.667 262.333L65.6669 4.33334C58.7058 1.10819 51.0486 -0.324685 43.3923 0.165157C35.736 0.654999 28.3238 3.052 21.8304 7.13796C15.3371 11.2239 9.96879 16.8691 6.21424 23.5595C2.45969 30.25 0.438138 37.7732 0.333592 45.4445V561.222C0.268583 569.097 2.23603 576.855 6.04578 583.747C9.85553 590.639 15.3787 596.431 22.0816 600.565C28.7844 604.698 36.4401 607.033 44.3089 607.342C52.1776 607.652 59.9932 605.927 67.0003 602.333L581.667 344.333C589.291 340.506 595.7 334.635 600.179 327.375C604.658 320.115 607.03 311.753 607.03 303.222C607.03 294.692 604.658 286.329 600.179 279.07C595.7 271.81 589.291 265.938 581.667 262.111V262.333Z" fill="black"/>
</svg>
